# This file uses centimeters as units for non-parametric coordinates.

mtllib tekstur.mtl
g default
v -0.500000 0.041396 0.500000
v 0.500000 0.041396 0.500000
v -0.500000 1.041396 0.500000
v 0.500000 1.041396 0.500000
v -0.500000 1.041396 -0.500000
v 0.500000 1.041396 -0.500000
v -0.500000 0.041396 -0.500000
v 0.500000 0.041396 -0.500000
vt 0.000000 0.000000
vt 0.000000 0.000000
vt 1.000000 0.000000
vt 1.000000 0.000000
vt 0.000000 -0.000000
vt 1.000000 -0.000000
vt 1.000000 1.000000
vt -0.000000 1.000000
vt 0.000000 0.000000
vt 1.000000 0.000000
vt 1.000000 1.000000
vt 0.000000 1.000000
vt 1.000000 1.000000
vt 0.000000 1.000000
vt 1.000000 1.000000
vt 0.000000 1.000000
vt -0.000000 0.000000
vt 1.000000 0.000000
vt 1.000000 1.000000
vt 0.000000 1.000000
vt 0.000000 0.000000
vt 1.000000 0.000000
vt 1.000000 1.000000
vt 0.000000 1.000000
vn 0.000000 0.000000 1.000000
vn 0.000000 0.000000 1.000000
vn 0.000000 0.000000 1.000000
vn 0.000000 0.000000 1.000000
vn 0.000000 1.000000 0.000000
vn 0.000000 1.000000 0.000000
vn 0.000000 1.000000 0.000000
vn 0.000000 1.000000 0.000000
vn 0.000000 0.000000 -1.000000
vn 0.000000 0.000000 -1.000000
vn 0.000000 0.000000 -1.000000
vn 0.000000 0.000000 -1.000000
vn 0.000000 -1.000000 0.000000
vn 0.000000 -1.000000 0.000000
vn 0.000000 -1.000000 0.000000
vn 0.000000 -1.000000 0.000000
vn 1.000000 0.000000 0.000000
vn 1.000000 0.000000 0.000000
vn 1.000000 0.000000 0.000000
vn 1.000000 0.000000 0.000000
vn -1.000000 0.000000 0.000000
vn -1.000000 0.000000 0.000000
vn -1.000000 0.000000 0.000000
vn -1.000000 0.000000 0.000000
s off
g pCube1
usemtl lambert3SG
f 1/21/1 2/22/2 4/23/3 3/24/4
f 3/5/5 4/6/6 6/19/7 5/20/8
f 5/7/9 6/8/10 8/17/11 7/18/12
f 7/9/13 8/10/14 2/15/15 1/16/16
f 2/2/17 8/4/18 6/11/19 4/12/20
f 7/1/21 1/3/22 3/13/23 5/14/24
